%
M48
M72
T01C0.0140
T02C0.0320
T03C0.0360
T04C0.0400
%
T01
X1143Y579
X1143Y2454
X3081Y3641
X4143Y2266
X4643Y2891
X5331Y2266
X5331Y1579
X4268Y1329
X3518Y1016
X5331Y3516
X6331Y2954
X6831Y3516
X7143Y5391
X7581Y5454
X7831Y6016
X7831Y7141
X7581Y7641
X8456Y7579
X8893Y6516
X8893Y5891
X9956Y6204
X9956Y6829
X9393Y4454
X9581Y4079
X9081Y3829
X9456Y2141
X11143Y3829
X7643Y1016
X7206Y829
X6456Y5579
X6518Y6391
X5456Y6204
X5456Y6829
X5456Y7204
X5206Y7954
X5518Y8204
X5956Y8266
X6581Y8610
X6956Y8766
X7331Y8766
X9706Y11954
X11581Y10641
X12456Y9454
X12831Y11516
X6581Y12266
X3456Y12266
X2893Y11954
X1393Y14766
X2081Y8516
X3081Y8079
X3518Y7954
X3893Y8204
X4143Y6954
T02
X4456Y10704
X5456Y10704
X6456Y10704
X7456Y10704
X8456Y10704
X9456Y10704
X10456Y10704
X10643Y8579
X11643Y8579
X10456Y13704
X9456Y13704
X8456Y13704
X7456Y13704
X6456Y13704
X5456Y13704
X4456Y13704
X3456Y13704
X2456Y13704
X2456Y10704
X3456Y10704
T03
X12581Y3641
X12581Y2641
T04
X12581Y1329
X11581Y1329
X10581Y1329
X9581Y1329
X8581Y1329
X3768Y5141
X3768Y6141
X2768Y6141
X2768Y5141
X1768Y5141
X1768Y6141
X2456Y9704
X3456Y9704
X4456Y9704
X5456Y9704
X6456Y9704
X7456Y9704
X8456Y9704
X9456Y9704
X10456Y9704
X11456Y9704
X11456Y14704
X12456Y14704
X10456Y14704
X9456Y14704
X8456Y14704
X7456Y14704
X6456Y14704
X5456Y14704
X4456Y14704
X3456Y14704
X2456Y14704
M30
