G75*
G70*
%OFA0B0*%
%FSLAX24Y24*%
%IPPOS*%
%LPD*%
%AMOC8*
5,1,8,0,0,1.08239X$1,22.5*
%
%ADD10R,0.0760X0.0760*%
%ADD11OC8,0.0760*%
%ADD12R,0.0631X0.0631*%
%ADD13C,0.0624*%
%ADD14R,0.0395X0.0434*%
%ADD15R,0.0434X0.0395*%
%ADD16R,0.0474X0.0631*%
%ADD17R,0.0692X0.0692*%
%ADD18OC8,0.0692*%
%ADD19C,0.0624*%
D10*
X003768Y006141D03*
X002456Y009704D03*
X002456Y014704D03*
X008581Y001329D03*
D11*
X009581Y001329D03*
X010581Y001329D03*
X011581Y001329D03*
X012581Y001329D03*
X011456Y009704D03*
X010456Y009704D03*
X009456Y009704D03*
X008456Y009704D03*
X007456Y009704D03*
X006456Y009704D03*
X005456Y009704D03*
X004456Y009704D03*
X003456Y009704D03*
X002768Y006141D03*
X002768Y005141D03*
X001768Y005141D03*
X001768Y006141D03*
X003768Y005141D03*
X003456Y014704D03*
X004456Y014704D03*
X005456Y014704D03*
X006456Y014704D03*
X007456Y014704D03*
X008456Y014704D03*
X009456Y014704D03*
X010456Y014704D03*
X011456Y014704D03*
X012456Y014704D03*
D12*
X008518Y003766D03*
X008518Y002266D03*
D13*
X008456Y010432D02*
X008456Y010976D01*
X009456Y010976D02*
X009456Y010432D01*
X010456Y010432D02*
X010456Y010976D01*
X010456Y013432D02*
X010456Y013976D01*
X009456Y013976D02*
X009456Y013432D01*
X008456Y013432D02*
X008456Y013976D01*
X007456Y013976D02*
X007456Y013432D01*
X006456Y013432D02*
X006456Y013976D01*
X005456Y013976D02*
X005456Y013432D01*
X004456Y013432D02*
X004456Y013976D01*
X003456Y013976D02*
X003456Y013432D01*
X002456Y013432D02*
X002456Y013976D01*
X002456Y010976D02*
X002456Y010432D01*
X003456Y010432D02*
X003456Y010976D01*
X004456Y010976D02*
X004456Y010432D01*
X005456Y010432D02*
X005456Y010976D01*
X006456Y010976D02*
X006456Y010432D01*
X007456Y010432D02*
X007456Y010976D01*
D14*
X003518Y001641D03*
X003518Y002266D03*
X006831Y002266D03*
X006831Y002891D03*
X007643Y002891D03*
X007643Y002266D03*
X009331Y002704D03*
X009331Y003329D03*
X010143Y003329D03*
X010143Y002704D03*
X009393Y005516D03*
X009393Y006141D03*
X009393Y006829D03*
X009393Y007454D03*
X010643Y007204D03*
X010643Y007829D03*
X011643Y007829D03*
X011643Y007204D03*
X012456Y008266D03*
X012456Y008891D03*
X012456Y010016D03*
X012456Y010641D03*
X011581Y013266D03*
X011581Y013891D03*
D15*
X006581Y007204D03*
X005956Y007204D03*
X004643Y003516D03*
X004018Y003516D03*
D16*
X011206Y011583D03*
X011581Y012449D03*
X011955Y011583D03*
D17*
X012581Y003641D03*
D18*
X012581Y002641D03*
D19*
X011643Y008579D03*
X010643Y008579D03*
M02*
