G75*
G70*
%OFA0B0*%
%FSLAX24Y24*%
%IPPOS*%
%LPD*%
%AMOC8*
5,1,8,0,0,1.08239X$1,22.5*
%
%ADD10C,0.0070*%
%ADD11C,0.0120*%
%ADD12C,0.0060*%
%ADD13R,0.0125X0.0125*%
%ADD14C,0.0100*%
%ADD15C,0.0080*%
%ADD16C,0.0279*%
%ADD17C,0.0160*%
%ADD18C,0.0020*%
%ADD19R,0.1250X0.0188*%
%ADD20C,0.0283*%
%ADD21C,0.0141*%
%ADD22C,0.0140*%
%ADD23C,0.0200*%
D10*
X000706Y000141D02*
X000706Y015891D01*
X013456Y015891D01*
X013456Y000141D01*
X000706Y000141D01*
X001616Y000544D02*
X001671Y000489D01*
X001781Y000489D01*
X001836Y000544D01*
X001984Y000489D02*
X002204Y000489D01*
X002094Y000489D02*
X002094Y000819D01*
X001984Y000709D01*
X001836Y000764D02*
X001781Y000819D01*
X001671Y000819D01*
X001616Y000764D01*
X001616Y000544D01*
X002352Y000544D02*
X002572Y000764D01*
X002572Y000544D01*
X002517Y000489D01*
X002407Y000489D01*
X002352Y000544D01*
X002352Y000764D01*
X002407Y000819D01*
X002517Y000819D01*
X002572Y000764D01*
X003515Y000751D02*
X003515Y000531D01*
X003571Y000476D01*
X003681Y000476D01*
X003736Y000531D01*
X003736Y000641D01*
X003626Y000641D01*
X003736Y000751D02*
X003681Y000806D01*
X003571Y000806D01*
X003515Y000751D01*
X003884Y000806D02*
X003884Y000476D01*
X004104Y000476D02*
X004104Y000806D01*
X004252Y000806D02*
X004417Y000806D01*
X004472Y000751D01*
X004472Y000531D01*
X004417Y000476D01*
X004252Y000476D01*
X004252Y000806D01*
X004104Y000476D02*
X003884Y000806D01*
X001358Y001606D02*
X001303Y001551D01*
X001083Y001551D01*
X001028Y001606D01*
X001028Y001716D01*
X001083Y001771D01*
X001138Y001919D02*
X001028Y002030D01*
X001358Y002030D01*
X001358Y002140D02*
X001358Y001919D01*
X001303Y001771D02*
X001358Y001716D01*
X001358Y001606D01*
X001358Y002288D02*
X001358Y002508D01*
X001358Y002398D02*
X001028Y002398D01*
X001138Y002288D01*
X001083Y002801D02*
X001303Y002801D01*
X001358Y002856D01*
X001358Y002966D01*
X001303Y003021D01*
X001303Y003169D02*
X001358Y003224D01*
X001358Y003334D01*
X001303Y003389D01*
X001083Y003389D01*
X001028Y003334D01*
X001028Y003224D01*
X001083Y003169D01*
X001138Y003169D01*
X001193Y003224D01*
X001193Y003389D01*
X001083Y003739D02*
X001303Y003739D01*
X001358Y003794D01*
X001358Y003904D01*
X001303Y003959D01*
X001303Y004107D02*
X001248Y004107D01*
X001193Y004162D01*
X001193Y004272D01*
X001248Y004327D01*
X001303Y004327D01*
X001358Y004272D01*
X001358Y004162D01*
X001303Y004107D01*
X001193Y004162D02*
X001138Y004107D01*
X001083Y004107D01*
X001028Y004162D01*
X001028Y004272D01*
X001083Y004327D01*
X001138Y004327D01*
X001193Y004272D01*
X001083Y003959D02*
X001028Y003904D01*
X001028Y003794D01*
X001083Y003739D01*
X001083Y003021D02*
X001028Y002966D01*
X001028Y002856D01*
X001083Y002801D01*
X004528Y004849D02*
X004528Y004959D01*
X004528Y004904D02*
X004803Y004904D01*
X004858Y004849D01*
X004858Y004794D01*
X004803Y004739D01*
X004748Y005107D02*
X004748Y005272D01*
X004693Y005327D01*
X004583Y005327D01*
X004528Y005272D01*
X004528Y005107D01*
X004858Y005107D01*
X004803Y005475D02*
X004858Y005530D01*
X004858Y005640D01*
X004803Y005695D01*
X004748Y005695D01*
X004693Y005640D01*
X004693Y005585D01*
X004693Y005640D02*
X004638Y005695D01*
X004583Y005695D01*
X004528Y005640D01*
X004528Y005530D01*
X004583Y005475D01*
X005192Y004226D02*
X005192Y003951D01*
X005247Y003896D01*
X005357Y003896D01*
X005412Y003951D01*
X005412Y004226D01*
X005561Y004171D02*
X005616Y004226D01*
X005726Y004226D01*
X005781Y004171D01*
X005781Y004116D01*
X005561Y003896D01*
X005781Y003896D01*
X007303Y003506D02*
X007303Y003176D01*
X007468Y003176D01*
X007523Y003231D01*
X007523Y003451D01*
X007468Y003506D01*
X007303Y003506D01*
X007671Y003341D02*
X007891Y003341D01*
X007836Y003176D02*
X007836Y003506D01*
X007671Y003341D01*
X007726Y002631D02*
X007671Y002576D01*
X007671Y002521D01*
X007726Y002466D01*
X007836Y002466D01*
X007891Y002411D01*
X007891Y002356D01*
X007836Y002301D01*
X007726Y002301D01*
X007671Y002356D01*
X007671Y002411D01*
X007726Y002466D01*
X007836Y002466D02*
X007891Y002521D01*
X007891Y002576D01*
X007836Y002631D01*
X007726Y002631D01*
X007523Y002576D02*
X007523Y002466D01*
X007468Y002411D01*
X007303Y002411D01*
X007303Y002301D02*
X007303Y002631D01*
X007468Y002631D01*
X007523Y002576D01*
X007413Y002411D02*
X007523Y002301D01*
X007723Y001790D02*
X007723Y001570D01*
X007558Y001735D01*
X007888Y001735D01*
X007723Y001422D02*
X007613Y001422D01*
X007558Y001367D01*
X007558Y001202D01*
X007888Y001202D01*
X007778Y001202D02*
X007778Y001367D01*
X007723Y001422D01*
X007558Y001054D02*
X007558Y000944D01*
X007558Y000999D02*
X007833Y000999D01*
X007888Y000944D01*
X007888Y000889D01*
X007833Y000834D01*
X009858Y003613D02*
X009803Y003669D01*
X009803Y003889D01*
X009858Y003944D01*
X009968Y003944D01*
X010023Y003889D01*
X010023Y003669D01*
X009968Y003613D01*
X009858Y003613D01*
X009913Y003724D02*
X010023Y003613D01*
X010171Y003613D02*
X010392Y003834D01*
X010392Y003889D01*
X010336Y003944D01*
X010226Y003944D01*
X010171Y003889D01*
X010171Y003613D02*
X010392Y003613D01*
X009864Y004614D02*
X009644Y004614D01*
X009754Y004614D02*
X009754Y004944D01*
X009644Y004834D01*
X009496Y004944D02*
X009496Y004669D01*
X009441Y004614D01*
X009331Y004614D01*
X009275Y004669D01*
X009275Y004944D01*
X009221Y004194D02*
X009441Y004194D01*
X009331Y004194D02*
X009331Y003864D01*
X009072Y003864D02*
X009072Y004084D01*
X008962Y004194D01*
X008852Y004084D01*
X008852Y003864D01*
X008852Y004029D02*
X009072Y004029D01*
X008704Y004194D02*
X008484Y004194D01*
X008594Y004194D02*
X008594Y003864D01*
X008336Y003919D02*
X008281Y003864D01*
X008171Y003864D01*
X008116Y003919D01*
X008171Y004029D02*
X008116Y004084D01*
X008116Y004139D01*
X008171Y004194D01*
X008281Y004194D01*
X008336Y004139D01*
X008281Y004029D02*
X008336Y003974D01*
X008336Y003919D01*
X008281Y004029D02*
X008171Y004029D01*
X011528Y003814D02*
X011528Y003594D01*
X011858Y003594D01*
X011858Y003814D01*
X011693Y003704D02*
X011693Y003594D01*
X011803Y003445D02*
X011583Y003445D01*
X011528Y003390D01*
X011528Y003225D01*
X011858Y003225D01*
X011858Y003390D01*
X011803Y003445D01*
X011803Y003077D02*
X011583Y003077D01*
X011528Y003022D01*
X011528Y002912D01*
X011583Y002857D01*
X011803Y002857D01*
X011858Y002912D01*
X011858Y003022D01*
X011803Y003077D01*
X011858Y002709D02*
X011528Y002709D01*
X011638Y002599D01*
X011528Y002489D01*
X011858Y002489D01*
X012171Y004364D02*
X012226Y004364D01*
X012281Y004419D01*
X012281Y004694D01*
X012226Y004694D02*
X012336Y004694D01*
X012484Y004694D02*
X012649Y004694D01*
X012704Y004639D01*
X012704Y004529D01*
X012649Y004474D01*
X012484Y004474D01*
X012484Y004364D02*
X012484Y004694D01*
X012852Y004639D02*
X012907Y004694D01*
X013017Y004694D01*
X013072Y004639D01*
X013072Y004584D01*
X012852Y004364D01*
X013072Y004364D01*
X012171Y004364D02*
X012116Y004419D01*
X011983Y007077D02*
X012093Y007187D01*
X012258Y007187D01*
X012093Y007187D02*
X011983Y007297D01*
X011928Y007297D01*
X012038Y007445D02*
X011928Y007555D01*
X012258Y007555D01*
X012258Y007445D02*
X012258Y007665D01*
X011983Y007077D02*
X011928Y007077D01*
X012608Y010176D02*
X012553Y010231D01*
X012608Y010176D02*
X012718Y010176D01*
X012773Y010231D01*
X012773Y010341D01*
X012718Y010396D01*
X012663Y010396D01*
X012553Y010341D01*
X012553Y010506D01*
X012773Y010506D01*
X012921Y010506D02*
X012921Y010286D01*
X013031Y010176D01*
X013142Y010286D01*
X013142Y010506D01*
X013086Y013739D02*
X012976Y013739D01*
X012921Y013794D01*
X012773Y013794D02*
X012773Y014014D01*
X012718Y014069D01*
X012553Y014069D01*
X012553Y013739D01*
X012718Y013739D01*
X012773Y013794D01*
X012921Y014014D02*
X012976Y014069D01*
X013086Y014069D01*
X013141Y014014D01*
X013141Y013959D01*
X013086Y013904D01*
X013141Y013849D01*
X013141Y013794D01*
X013086Y013739D01*
X013086Y013904D02*
X013031Y013904D01*
X011891Y013841D02*
X011671Y013841D01*
X011836Y014006D01*
X011836Y013676D01*
X011523Y013731D02*
X011468Y013676D01*
X011358Y013676D01*
X011303Y013731D01*
X011303Y013951D01*
X011358Y014006D01*
X011468Y014006D01*
X011523Y013951D01*
X006185Y015529D02*
X006187Y015561D01*
X006193Y015592D01*
X006202Y015622D01*
X006216Y015651D01*
X006232Y015678D01*
X006252Y015703D01*
X006275Y015725D01*
X006300Y015744D01*
X006328Y015760D01*
X006357Y015772D01*
X006388Y015781D01*
X006419Y015786D01*
X006451Y015787D01*
X006483Y015784D01*
X006514Y015777D01*
X006544Y015767D01*
X006572Y015752D01*
X006598Y015735D01*
X006623Y015714D01*
X006644Y015691D01*
X006662Y015665D01*
X006677Y015637D01*
X006689Y015607D01*
X006697Y015576D01*
X006701Y015545D01*
X006701Y015513D01*
X006697Y015482D01*
X006689Y015451D01*
X006677Y015421D01*
X006662Y015393D01*
X006644Y015367D01*
X006623Y015344D01*
X006598Y015323D01*
X006572Y015306D01*
X006544Y015291D01*
X006514Y015281D01*
X006483Y015274D01*
X006451Y015271D01*
X006419Y015272D01*
X006388Y015277D01*
X006357Y015286D01*
X006328Y015298D01*
X006300Y015314D01*
X006275Y015333D01*
X006252Y015355D01*
X006232Y015380D01*
X006216Y015407D01*
X006202Y015436D01*
X006193Y015466D01*
X006187Y015497D01*
X006185Y015529D01*
X006211Y012381D02*
X006101Y012381D01*
X006046Y012326D01*
X005898Y012326D02*
X005898Y012216D01*
X005843Y012161D01*
X005678Y012161D01*
X005678Y012051D02*
X005678Y012381D01*
X005843Y012381D01*
X005898Y012326D01*
X006046Y012051D02*
X006266Y012271D01*
X006266Y012326D01*
X006211Y012381D01*
X006266Y012051D02*
X006046Y012051D01*
X002517Y012614D02*
X002296Y012614D01*
X002517Y012834D01*
X002517Y012889D01*
X002461Y012944D01*
X002351Y012944D01*
X002296Y012889D01*
X002148Y012889D02*
X002148Y012669D01*
X002093Y012614D01*
X001928Y012614D01*
X001928Y012944D01*
X002093Y012944D01*
X002148Y012889D01*
X001649Y010881D02*
X001539Y010881D01*
X001484Y010826D01*
X001484Y010771D01*
X001539Y010716D01*
X001704Y010716D01*
X001704Y010606D02*
X001704Y010826D01*
X001649Y010881D01*
X001704Y010606D02*
X001649Y010551D01*
X001539Y010551D01*
X001484Y010606D01*
X001336Y010551D02*
X001226Y010661D01*
X001281Y010661D02*
X001116Y010661D01*
X001116Y010551D02*
X001116Y010881D01*
X001281Y010881D01*
X001336Y010826D01*
X001336Y010716D01*
X001281Y010661D01*
X001156Y009944D02*
X000991Y009944D01*
X000991Y009614D01*
X000991Y009724D02*
X001156Y009724D01*
X001211Y009779D01*
X001211Y009889D01*
X001156Y009944D01*
X001359Y009834D02*
X001469Y009944D01*
X001469Y009614D01*
X001359Y009614D02*
X001579Y009614D01*
X001328Y008244D02*
X001328Y008024D01*
X001328Y008134D02*
X000998Y008134D01*
X001108Y008024D01*
X000998Y007876D02*
X001328Y007876D01*
X000998Y007656D01*
X001328Y007656D01*
X001328Y007508D02*
X001218Y007397D01*
X001218Y007452D02*
X001218Y007287D01*
X001328Y007287D02*
X000998Y007287D01*
X000998Y007452D01*
X001053Y007508D01*
X001163Y007508D01*
X001218Y007452D01*
X003428Y007256D02*
X003538Y007256D01*
X003483Y007256D02*
X003483Y006926D01*
X003428Y006926D02*
X003538Y006926D01*
X003674Y006981D02*
X003729Y006926D01*
X003839Y006926D01*
X003894Y006981D01*
X003894Y007036D01*
X003839Y007091D01*
X003729Y007091D01*
X003674Y007146D01*
X003674Y007201D01*
X003729Y007256D01*
X003839Y007256D01*
X003894Y007201D01*
X004042Y007256D02*
X004042Y006926D01*
X004042Y007036D02*
X004207Y007036D01*
X004262Y007091D01*
X004262Y007201D01*
X004207Y007256D01*
X004042Y007256D01*
X001586Y015176D02*
X001476Y015176D01*
X001421Y015231D01*
X001531Y015341D02*
X001586Y015341D01*
X001641Y015286D01*
X001641Y015231D01*
X001586Y015176D01*
X001586Y015341D02*
X001641Y015396D01*
X001641Y015451D01*
X001586Y015506D01*
X001476Y015506D01*
X001421Y015451D01*
X001273Y015451D02*
X001273Y015341D01*
X001218Y015286D01*
X001053Y015286D01*
X001053Y015176D02*
X001053Y015506D01*
X001218Y015506D01*
X001273Y015451D01*
D11*
X012605Y008635D02*
X012605Y008455D01*
X012695Y008365D01*
X012605Y008635D02*
X012695Y008725D01*
X012785Y008725D01*
X013145Y008365D01*
X013145Y008725D01*
X013145Y008117D02*
X013145Y007757D01*
X013145Y007937D02*
X012605Y007937D01*
X012785Y007757D01*
X012785Y007510D02*
X012695Y007510D01*
X012605Y007419D01*
X012605Y007239D01*
X012695Y007149D01*
X012695Y006902D02*
X012605Y006812D01*
X012605Y006632D01*
X012695Y006542D01*
X012605Y006294D02*
X013145Y005934D01*
X012965Y005686D02*
X012605Y005686D01*
X012605Y005934D02*
X013145Y006294D01*
X013145Y006542D02*
X012785Y006902D01*
X012695Y006902D01*
X013145Y006902D02*
X013145Y006542D01*
X013145Y007149D02*
X012785Y007510D01*
X013145Y007510D02*
X013145Y007149D01*
X012965Y005686D02*
X013145Y005506D01*
X012965Y005326D01*
X012605Y005326D01*
D12*
X012593Y000681D02*
X012766Y000421D01*
X012766Y000681D01*
X012887Y000681D02*
X013017Y000681D01*
X013061Y000638D01*
X013061Y000464D01*
X013017Y000421D01*
X012887Y000421D01*
X012887Y000681D01*
X012593Y000681D02*
X012593Y000421D01*
X012472Y000464D02*
X012472Y000551D01*
X012385Y000551D01*
X012472Y000464D02*
X012428Y000421D01*
X012341Y000421D01*
X012298Y000464D01*
X012298Y000638D01*
X012341Y000681D01*
X012428Y000681D01*
X012472Y000638D01*
X011998Y000638D02*
X011955Y000681D01*
X011868Y000681D01*
X011825Y000638D01*
X011825Y000595D01*
X011868Y000551D01*
X011955Y000551D01*
X011998Y000508D01*
X011998Y000464D01*
X011955Y000421D01*
X011868Y000421D01*
X011825Y000464D01*
X011617Y000421D02*
X011617Y000681D01*
X011530Y000681D02*
X011704Y000681D01*
X011409Y000638D02*
X011366Y000681D01*
X011279Y000681D01*
X011236Y000638D01*
X011236Y000464D01*
X011279Y000421D01*
X011366Y000421D01*
X011409Y000464D01*
X010998Y000464D02*
X010955Y000421D01*
X010868Y000421D01*
X010825Y000464D01*
X010868Y000551D02*
X010955Y000551D01*
X010998Y000508D01*
X010998Y000464D01*
X010868Y000551D02*
X010825Y000595D01*
X010825Y000638D01*
X010868Y000681D01*
X010955Y000681D01*
X010998Y000638D01*
X010704Y000681D02*
X010530Y000681D01*
X010617Y000681D02*
X010617Y000421D01*
X010409Y000421D02*
X010322Y000508D01*
X010366Y000508D02*
X010236Y000508D01*
X010236Y000421D02*
X010236Y000681D01*
X010366Y000681D01*
X010409Y000638D01*
X010409Y000551D01*
X010366Y000508D01*
X009998Y000464D02*
X009998Y000638D01*
X009955Y000681D01*
X009825Y000681D01*
X009825Y000421D01*
X009955Y000421D01*
X009998Y000464D01*
X009704Y000421D02*
X009530Y000681D01*
X009409Y000638D02*
X009409Y000551D01*
X009366Y000508D01*
X009236Y000508D01*
X009322Y000508D02*
X009409Y000421D01*
X009530Y000421D02*
X009704Y000681D01*
X009409Y000638D02*
X009366Y000681D01*
X009236Y000681D01*
X009236Y000421D01*
X008936Y000464D02*
X008936Y000638D01*
X008892Y000681D01*
X008762Y000681D01*
X008762Y000421D01*
X008892Y000421D01*
X008936Y000464D01*
X008641Y000421D02*
X008468Y000681D01*
X008347Y000681D02*
X008173Y000681D01*
X008260Y000681D02*
X008260Y000421D01*
X008468Y000421D02*
X008641Y000681D01*
X008161Y015284D02*
X008247Y015371D01*
X008204Y015371D01*
X008204Y015414D01*
X008247Y015414D01*
X008247Y015371D01*
X007968Y015371D02*
X007794Y015371D01*
X007881Y015371D02*
X007881Y015631D01*
X007794Y015545D01*
X007673Y015371D02*
X007500Y015371D01*
X007587Y015371D02*
X007587Y015631D01*
X007500Y015545D01*
X007379Y015588D02*
X007205Y015414D01*
X007249Y015371D01*
X007335Y015371D01*
X007379Y015414D01*
X007379Y015588D01*
X007335Y015631D01*
X007249Y015631D01*
X007205Y015588D01*
X007205Y015414D01*
X007084Y015371D02*
X006911Y015371D01*
X007084Y015545D01*
X007084Y015588D01*
X007041Y015631D01*
X006954Y015631D01*
X006911Y015588D01*
X006521Y015611D02*
X006478Y015654D01*
X006391Y015654D01*
X006348Y015611D01*
X006348Y015438D01*
X006391Y015394D01*
X006478Y015394D01*
X006521Y015438D01*
X005968Y015631D02*
X005794Y015631D01*
X005881Y015631D02*
X005881Y015371D01*
X005673Y015371D02*
X005673Y015631D01*
X005673Y015501D02*
X005500Y015501D01*
X005379Y015501D02*
X005292Y015501D01*
X005379Y015501D02*
X005379Y015414D01*
X005335Y015371D01*
X005249Y015371D01*
X005205Y015414D01*
X005205Y015588D01*
X005249Y015631D01*
X005335Y015631D01*
X005379Y015588D01*
X005500Y015631D02*
X005500Y015371D01*
X005095Y015371D02*
X005009Y015371D01*
X005052Y015371D02*
X005052Y015631D01*
X005009Y015631D02*
X005095Y015631D01*
X004888Y015588D02*
X004888Y015501D01*
X004844Y015458D01*
X004714Y015458D01*
X004801Y015458D02*
X004888Y015371D01*
X004714Y015371D02*
X004714Y015631D01*
X004844Y015631D01*
X004888Y015588D01*
X004593Y015588D02*
X004506Y015501D01*
X004506Y015371D01*
X004506Y015501D02*
X004419Y015588D01*
X004419Y015631D01*
X004298Y015588D02*
X004298Y015501D01*
X004255Y015458D01*
X004125Y015458D01*
X004125Y015371D02*
X004125Y015631D01*
X004255Y015631D01*
X004298Y015588D01*
X004004Y015588D02*
X004004Y015414D01*
X003960Y015371D01*
X003874Y015371D01*
X003830Y015414D01*
X003830Y015588D01*
X003874Y015631D01*
X003960Y015631D01*
X004004Y015588D01*
X003709Y015588D02*
X003666Y015631D01*
X003579Y015631D01*
X003536Y015588D01*
X003536Y015414D01*
X003579Y015371D01*
X003666Y015371D01*
X003709Y015414D01*
X004593Y015588D02*
X004593Y015631D01*
X008652Y015631D02*
X008652Y015371D01*
X008652Y015458D02*
X008825Y015631D01*
X008946Y015588D02*
X008946Y015414D01*
X008990Y015371D01*
X009076Y015371D01*
X009120Y015414D01*
X009120Y015501D01*
X009033Y015501D01*
X009120Y015588D02*
X009076Y015631D01*
X008990Y015631D01*
X008946Y015588D01*
X008825Y015371D02*
X008695Y015501D01*
X009241Y015501D02*
X009414Y015501D01*
X009371Y015371D02*
X009371Y015631D01*
X009241Y015501D01*
X009536Y015371D02*
X009709Y015371D01*
X009830Y015371D02*
X009830Y015631D01*
X010004Y015371D01*
X010004Y015631D01*
X010125Y015631D02*
X010125Y015371D01*
X010298Y015371D01*
X010212Y015501D02*
X010125Y015501D01*
X010125Y015631D02*
X010298Y015631D01*
X009536Y015631D02*
X009536Y015371D01*
D13*
X009455Y003579D03*
D14*
X009081Y001829D02*
X008081Y001829D01*
X008081Y000829D01*
X013081Y000829D01*
X013081Y001829D01*
X009081Y001829D01*
X009081Y000829D01*
X012081Y002141D02*
X013081Y002141D01*
X013081Y004141D01*
X012081Y004141D01*
X012081Y002141D01*
X011956Y009204D02*
X011956Y010204D01*
X002956Y010204D01*
X002956Y009204D01*
X002956Y010204D02*
X001956Y010204D01*
X001956Y009204D01*
X011956Y009204D01*
X012956Y014204D02*
X012956Y015204D01*
X002956Y015204D01*
X002956Y014204D01*
X002956Y015204D02*
X001956Y015204D01*
X001956Y014204D01*
X012956Y014204D01*
X004268Y006641D02*
X004268Y004641D01*
X001268Y004641D01*
X001268Y006641D01*
X004268Y006641D01*
X004268Y005641D02*
X003268Y005641D01*
X003268Y006641D01*
D15*
X002956Y007059D02*
X002956Y008348D01*
X001581Y008348D01*
X001581Y007059D01*
X002956Y007059D01*
X002581Y008766D02*
X002331Y008766D01*
X002456Y009016D01*
X002581Y008766D01*
X001643Y011118D02*
X001143Y011118D01*
X001143Y012289D01*
X001643Y012289D01*
X001643Y011118D01*
X001747Y013040D02*
X001039Y013040D01*
X001039Y013867D01*
X001747Y013867D01*
X001747Y013040D01*
X001581Y013266D02*
X001205Y013266D01*
X001393Y013579D01*
X001581Y013266D01*
X001511Y013296D02*
X001275Y013296D01*
X001393Y013493D01*
X001511Y013296D01*
X001487Y013336D02*
X001299Y013336D01*
X001346Y013415D02*
X001440Y013415D01*
X001580Y013641D02*
X001205Y013641D01*
X002456Y015391D02*
X002581Y015641D01*
X002331Y015641D01*
X002456Y015391D01*
X006326Y007771D02*
X009085Y007771D01*
X009085Y005151D01*
X008946Y005011D01*
X006326Y005011D01*
X006326Y007771D01*
X004706Y006266D02*
X004706Y006016D01*
X004456Y006141D01*
X004706Y006266D01*
X002791Y004204D02*
X002791Y003704D01*
X001620Y003704D01*
X001620Y004204D01*
X002791Y004204D01*
X002791Y003329D02*
X002791Y002829D01*
X001620Y002829D01*
X001620Y003329D01*
X002791Y003329D01*
X002791Y002454D02*
X002791Y001954D01*
X001620Y001954D01*
X001620Y002454D01*
X002791Y002454D01*
X002791Y001579D02*
X002791Y001079D01*
X001620Y001079D01*
X001620Y001579D01*
X002791Y001579D01*
X003798Y001240D02*
X005517Y001240D01*
X005517Y003732D01*
X003798Y003732D01*
X003798Y001240D01*
X008120Y002204D02*
X008120Y002704D01*
X009291Y002704D01*
X009291Y002204D01*
X008120Y002204D01*
X008120Y003079D02*
X008120Y003579D01*
X009291Y003579D01*
X009291Y003079D01*
X008120Y003079D01*
X010396Y003389D02*
X010716Y003389D01*
X010716Y003169D01*
X010716Y002489D02*
X010716Y002269D01*
X010396Y002269D01*
X010643Y004285D02*
X011643Y004285D01*
X011660Y004287D01*
X011677Y004291D01*
X011693Y004298D01*
X011707Y004308D01*
X011720Y004321D01*
X011730Y004335D01*
X011737Y004351D01*
X011741Y004368D01*
X011743Y004385D01*
X011743Y007779D01*
X011693Y007779D01*
X010593Y007779D01*
X010543Y007779D01*
X010543Y004385D01*
X010545Y004368D01*
X010549Y004351D01*
X010556Y004335D01*
X010566Y004321D01*
X010579Y004308D01*
X010593Y004298D01*
X010609Y004291D01*
X010626Y004287D01*
X010643Y004285D01*
X011143Y005635D02*
X011143Y005835D01*
X010843Y005835D01*
X010843Y005985D02*
X011443Y005985D01*
X011443Y006135D01*
X010843Y006135D01*
X010843Y005985D01*
X010843Y006285D02*
X011143Y006285D01*
X011143Y006485D01*
X011143Y006285D02*
X011443Y006285D01*
X011443Y005835D02*
X011143Y005835D01*
X010967Y010999D02*
X012194Y010999D01*
X012194Y012259D01*
X010967Y012259D01*
X010967Y013480D02*
X010967Y010999D01*
X012194Y012259D02*
X012194Y013480D01*
X010967Y013480D01*
X012476Y013117D02*
X012476Y012290D01*
X013185Y012290D01*
X013185Y013117D01*
X012476Y013117D01*
X012643Y012891D02*
X013018Y012891D01*
X012831Y012579D01*
X012643Y012891D01*
X012712Y012861D02*
X012949Y012861D01*
X012831Y012664D01*
X012712Y012861D01*
X012757Y012787D02*
X012904Y012787D01*
X012857Y012708D02*
X012804Y012708D01*
X012643Y012516D02*
X013018Y012516D01*
D16*
X004095Y003424D03*
D17*
X004456Y011766D02*
X004456Y012079D01*
X005206Y012079D01*
X005206Y012329D01*
X004456Y012329D01*
X004456Y012641D01*
X003768Y012204D01*
X004456Y011766D01*
X004393Y011891D02*
X004393Y012141D01*
X005143Y012141D01*
X005143Y012266D01*
X004393Y012266D01*
X004393Y012454D01*
X003956Y012204D01*
X004393Y011954D01*
X003893Y012204D01*
X004393Y011891D01*
X004393Y012032D02*
X004256Y012032D01*
X004237Y012032D02*
X004168Y012032D01*
X003979Y012190D02*
X005143Y012190D01*
X004393Y012349D02*
X004210Y012349D01*
X003920Y012190D02*
X003914Y012190D01*
D18*
X002456Y009016D02*
X002331Y008766D01*
X002581Y008766D01*
X002456Y009016D01*
X002450Y009005D02*
X002461Y009005D01*
X002470Y008986D02*
X002441Y008986D01*
X002431Y008968D02*
X002480Y008968D01*
X002489Y008949D02*
X002422Y008949D01*
X002413Y008931D02*
X002498Y008931D01*
X002508Y008912D02*
X002404Y008912D01*
X002394Y008894D02*
X002517Y008894D01*
X002526Y008875D02*
X002385Y008875D01*
X002376Y008856D02*
X002535Y008856D01*
X002545Y008838D02*
X002366Y008838D01*
X002357Y008819D02*
X002554Y008819D01*
X002563Y008801D02*
X002348Y008801D01*
X002339Y008782D02*
X002572Y008782D01*
X004456Y006141D02*
X004706Y006266D01*
X004706Y006016D01*
X004456Y006141D01*
X004472Y006149D02*
X004706Y006149D01*
X004706Y006131D02*
X004477Y006131D01*
X004514Y006112D02*
X004706Y006112D01*
X004706Y006094D02*
X004551Y006094D01*
X004588Y006075D02*
X004706Y006075D01*
X004706Y006056D02*
X004625Y006056D01*
X004662Y006038D02*
X004706Y006038D01*
X004706Y006019D02*
X004699Y006019D01*
X004706Y006168D02*
X004509Y006168D01*
X004546Y006186D02*
X004706Y006186D01*
X004706Y006205D02*
X004583Y006205D01*
X004620Y006223D02*
X004706Y006223D01*
X004706Y006242D02*
X004657Y006242D01*
X004694Y006260D02*
X004706Y006260D01*
X002456Y015391D02*
X002581Y015641D01*
X002331Y015641D01*
X002456Y015391D01*
X002450Y015402D02*
X002461Y015402D01*
X002470Y015421D02*
X002441Y015421D01*
X002431Y015439D02*
X002480Y015439D01*
X002489Y015458D02*
X002422Y015458D01*
X002413Y015476D02*
X002498Y015476D01*
X002507Y015495D02*
X002404Y015495D01*
X002394Y015514D02*
X002517Y015514D01*
X002526Y015532D02*
X002385Y015532D01*
X002376Y015551D02*
X002535Y015551D01*
X002545Y015569D02*
X002366Y015569D01*
X002357Y015588D02*
X002554Y015588D01*
X002563Y015606D02*
X002348Y015606D01*
X002339Y015625D02*
X002572Y015625D01*
D19*
X011581Y013360D03*
D20*
X008786Y005311D03*
D21*
X002736Y007753D03*
D22*
X007726Y011967D02*
X008006Y011967D01*
X008099Y012061D01*
X008099Y012154D01*
X008006Y012248D01*
X007726Y012248D01*
X008006Y012248D02*
X008099Y012341D01*
X008099Y012434D01*
X008006Y012528D01*
X007726Y012528D01*
X007726Y011967D01*
D23*
X007216Y012241D02*
X007218Y012293D01*
X007224Y012345D01*
X007234Y012396D01*
X007247Y012447D01*
X007265Y012496D01*
X007286Y012544D01*
X007311Y012590D01*
X007339Y012634D01*
X007370Y012676D01*
X007404Y012715D01*
X007442Y012751D01*
X007482Y012785D01*
X007524Y012816D01*
X007569Y012843D01*
X007615Y012867D01*
X007663Y012887D01*
X007713Y012903D01*
X007763Y012916D01*
X007815Y012925D01*
X007867Y012930D01*
X007919Y012931D01*
X007971Y012928D01*
X008023Y012921D01*
X008074Y012910D01*
X008124Y012896D01*
X008173Y012877D01*
X008220Y012855D01*
X008266Y012830D01*
X008309Y012801D01*
X008351Y012769D01*
X008389Y012733D01*
X008425Y012696D01*
X008458Y012655D01*
X008488Y012612D01*
X008514Y012567D01*
X008537Y012520D01*
X008556Y012472D01*
X008572Y012422D01*
X008584Y012371D01*
X008592Y012319D01*
X008596Y012267D01*
X008596Y012215D01*
X008592Y012163D01*
X008584Y012111D01*
X008572Y012060D01*
X008556Y012010D01*
X008537Y011962D01*
X008514Y011915D01*
X008488Y011870D01*
X008458Y011827D01*
X008425Y011786D01*
X008389Y011749D01*
X008351Y011713D01*
X008309Y011681D01*
X008266Y011652D01*
X008220Y011627D01*
X008173Y011605D01*
X008124Y011586D01*
X008074Y011572D01*
X008023Y011561D01*
X007971Y011554D01*
X007919Y011551D01*
X007867Y011552D01*
X007815Y011557D01*
X007763Y011566D01*
X007713Y011579D01*
X007663Y011595D01*
X007615Y011615D01*
X007569Y011639D01*
X007524Y011666D01*
X007482Y011697D01*
X007442Y011731D01*
X007404Y011767D01*
X007370Y011806D01*
X007339Y011848D01*
X007311Y011892D01*
X007286Y011938D01*
X007265Y011986D01*
X007247Y012035D01*
X007234Y012086D01*
X007224Y012137D01*
X007218Y012189D01*
X007216Y012241D01*
M02*
